<svg xmlns="http://www.w3.org/2000/svg" viewBox="0 0 800 500" role="img" aria-label="Mockup da interface do LASTRO, sistema de gestão de estoque">
<rect width="800" height="500" fill="#FAFAF7"/>
<rect width="800" height="52" fill="#1C1917"/>
<rect x="20" y="14" width="24" height="24" rx="6" fill="#B45309"/>
<rect x="25" y="27" width="14" height="4" rx="1" fill="#FBBF24"/>
<rect x="28" y="20" width="8" height="4" rx="1" fill="#FDE68A"/>
<rect x="54" y="21" width="74" height="10" rx="4" fill="#E7E5E4"/>
<rect x="160" y="20" width="52" height="12" rx="4" fill="#57534E"/>
<rect x="160" y="48" width="52" height="4" rx="2" fill="#B45309"/>
<rect x="226" y="20" width="70" height="12" rx="4" fill="#44403C"/>
<rect x="310" y="20" width="56" height="12" rx="4" fill="#44403C"/>
<circle cx="762" cy="26" r="13" fill="#B45309"/>
<rect x="656" y="17" width="86" height="18" rx="6" fill="none" stroke="#44403C" stroke-width="2"/>
<g>
<rect x="20" y="68" width="136" height="64" rx="10" fill="#FFFFFF" stroke="#E7E5E4"/>
<rect x="32" y="80" width="56" height="7" rx="3" fill="#D6D3D1"/>
<rect x="32" y="97" width="92" height="14" rx="4" fill="#1C1917"/>
<rect x="168" y="68" width="136" height="64" rx="10" fill="#FFFFFF" stroke="#E7E5E4"/>
<rect x="180" y="80" width="64" height="7" rx="3" fill="#D6D3D1"/>
<rect x="180" y="97" width="52" height="14" rx="4" fill="#B45309"/>
<rect x="316" y="68" width="136" height="64" rx="10" fill="#FFFFFF" stroke="#E7E5E4"/>
<rect x="328" y="80" width="48" height="7" rx="3" fill="#D6D3D1"/>
<rect x="328" y="97" width="44" height="14" rx="4" fill="#0369A1"/>
<rect x="464" y="68" width="136" height="64" rx="10" fill="#FFFFFF" stroke="#E7E5E4"/>
<rect x="476" y="80" width="58" height="7" rx="3" fill="#D6D3D1"/>
<rect x="476" y="97" width="40" height="14" rx="4" fill="#B91C1C"/>
</g>
<rect x="20" y="146" width="220" height="26" rx="8" fill="#FFFFFF" stroke="#E7E5E4"/>
<circle cx="36" cy="159" r="5" fill="none" stroke="#A8A29E" stroke-width="2"/>
<rect x="250" y="146" width="80" height="26" rx="8" fill="#FFFFFF" stroke="#E7E5E4"/>
<rect x="340" y="146" width="80" height="26" rx="8" fill="#FFFFFF" stroke="#E7E5E4"/>
<rect x="500" y="146" width="100" height="26" rx="8" fill="#1C1917"/>
<rect x="20" y="184" width="580" height="296" rx="12" fill="#FFFFFF" stroke="#E7E5E4"/>
<rect x="21" y="185" width="578" height="30" rx="11" fill="#F5F5F4"/>
<g fill="#D6D3D1">
<rect x="70" y="196" width="40" height="8" rx="3"/><rect x="140" y="196" width="90" height="8" rx="3"/>
<rect x="300" y="196" width="46" height="8" rx="3"/><rect x="360" y="196" width="46" height="8" rx="3"/>
<rect x="420" y="196" width="46" height="8" rx="3"/><rect x="500" y="196" width="60" height="8" rx="3"/>
</g>
<g>
<rect x="21" y="215" width="4" height="33" fill="#B45309"/>
<rect x="34" y="222" width="22" height="18" rx="5" fill="#B45309"/>
<rect x="70" y="224" width="52" height="9" rx="3" fill="#78716C"/>
<rect x="140" y="221" width="120" height="9" rx="3" fill="#44403C"/><rect x="140" y="234" width="84" height="6" rx="3" fill="#D6D3D1"/>
<rect x="306" y="224" width="34" height="9" rx="3" fill="#78716C"/><rect x="366" y="224" width="30" height="9" rx="3" fill="#A8A29E"/><rect x="424" y="224" width="36" height="9" rx="3" fill="#1C1917"/>
<rect x="500" y="221" width="58" height="15" rx="5" fill="#E9F6EE"/>
<rect x="21" y="248" width="578" height="2" fill="#F0EFEA"/>
<rect x="21" y="250" width="4" height="33" fill="#B45309"/>
<rect x="34" y="257" width="22" height="18" rx="5" fill="#B45309"/>
<rect x="70" y="259" width="52" height="9" rx="3" fill="#78716C"/>
<rect x="140" y="256" width="104" height="9" rx="3" fill="#44403C"/><rect x="140" y="269" width="70" height="6" rx="3" fill="#D6D3D1"/>
<rect x="306" y="259" width="24" height="9" rx="3" fill="#78716C"/><rect x="366" y="259" width="24" height="9" rx="3" fill="#A8A29E"/><rect x="424" y="259" width="20" height="9" rx="3" fill="#B91C1C"/>
<rect x="500" y="256" width="58" height="15" rx="5" fill="#B91C1C"/>
<rect x="21" y="283" width="578" height="2" fill="#F0EFEA"/>
<rect x="21" y="285" width="4" height="33" fill="#0369A1"/>
<rect x="34" y="292" width="22" height="18" rx="5" fill="#0369A1"/>
<rect x="70" y="294" width="52" height="9" rx="3" fill="#78716C"/>
<rect x="140" y="291" width="130" height="9" rx="3" fill="#44403C"/><rect x="140" y="304" width="92" height="6" rx="3" fill="#D6D3D1"/>
<rect x="306" y="294" width="30" height="9" rx="3" fill="#78716C"/><rect x="366" y="294" width="26" height="9" rx="3" fill="#A8A29E"/><rect x="424" y="294" width="32" height="9" rx="3" fill="#1C1917"/>
<rect x="500" y="291" width="58" height="15" rx="5" fill="#FEF3E2" stroke="#F3D9B6"/>
<rect x="21" y="318" width="578" height="2" fill="#F0EFEA"/>
<rect x="21" y="320" width="4" height="33" fill="#0369A1"/>
<rect x="34" y="327" width="22" height="18" rx="5" fill="#0369A1"/>
<rect x="70" y="329" width="52" height="9" rx="3" fill="#78716C"/>
<rect x="140" y="326" width="112" height="9" rx="3" fill="#44403C"/><rect x="140" y="339" width="78" height="6" rx="3" fill="#D6D3D1"/>
<rect x="306" y="329" width="36" height="9" rx="3" fill="#78716C"/><rect x="366" y="329" width="22" height="9" rx="3" fill="#A8A29E"/><rect x="424" y="329" width="38" height="9" rx="3" fill="#1C1917"/>
<rect x="500" y="326" width="58" height="15" rx="5" fill="#E9F6EE"/>
<rect x="21" y="353" width="578" height="2" fill="#F0EFEA"/>
<rect x="21" y="355" width="4" height="33" fill="#6B7280"/>
<rect x="34" y="362" width="22" height="18" rx="5" fill="#6B7280"/>
<rect x="70" y="364" width="52" height="9" rx="3" fill="#78716C"/>
<rect x="140" y="361" width="96" height="9" rx="3" fill="#44403C"/><rect x="140" y="374" width="64" height="6" rx="3" fill="#D6D3D1"/>
<rect x="306" y="364" width="28" height="9" rx="3" fill="#78716C"/><rect x="366" y="364" width="28" height="9" rx="3" fill="#A8A29E"/><rect x="424" y="364" width="30" height="9" rx="3" fill="#1C1917"/>
<rect x="500" y="361" width="58" height="15" rx="5" fill="#FEF3E2" stroke="#F3D9B6"/>
<rect x="21" y="388" width="578" height="2" fill="#F0EFEA"/>
<rect x="21" y="390" width="4" height="33" fill="#6B7280"/>
<rect x="34" y="397" width="22" height="18" rx="5" fill="#6B7280"/>
<rect x="70" y="399" width="52" height="9" rx="3" fill="#78716C"/>
<rect x="140" y="396" width="122" height="9" rx="3" fill="#44403C"/><rect x="140" y="409" width="86" height="6" rx="3" fill="#D6D3D1"/>
<rect x="306" y="399" width="32" height="9" rx="3" fill="#78716C"/><rect x="366" y="399" width="24" height="9" rx="3" fill="#A8A29E"/><rect x="424" y="399" width="34" height="9" rx="3" fill="#1C1917"/>
<rect x="500" y="396" width="58" height="15" rx="5" fill="#E9F6EE"/>
<rect x="21" y="423" width="578" height="2" fill="#F0EFEA"/>
<rect x="21" y="425" width="4" height="33" fill="#6B7280"/>
<rect x="34" y="432" width="22" height="18" rx="5" fill="#6B7280"/>
<rect x="70" y="434" width="52" height="9" rx="3" fill="#78716C"/>
<rect x="140" y="431" width="108" height="9" rx="3" fill="#44403C"/><rect x="140" y="444" width="72" height="6" rx="3" fill="#D6D3D1"/>
<rect x="306" y="434" width="26" height="9" rx="3" fill="#78716C"/><rect x="366" y="434" width="30" height="9" rx="3" fill="#A8A29E"/><rect x="424" y="434" width="28" height="9" rx="3" fill="#1C1917"/>
<rect x="500" y="431" width="58" height="15" rx="5" fill="#E9F6EE"/>
</g>
<g>
<rect x="612" y="68" width="168" height="412" rx="12" fill="#FFFFFF" stroke="#E7E5E4"/>
<rect x="626" y="84" width="80" height="8" rx="3" fill="#A8A29E"/>
<rect x="626" y="98" width="120" height="11" rx="4" fill="#1C1917"/>
<rect x="626" y="122" width="44" height="42" rx="8" fill="#FFFFFF" stroke="#E7E5E4"/>
<rect x="636" y="132" width="24" height="10" rx="3" fill="#44403C"/>
<rect x="636" y="148" width="24" height="6" rx="3" fill="#D6D3D1"/>
<rect x="676" y="122" width="44" height="42" rx="8" fill="#FFFFFF" stroke="#E7E5E4"/>
<rect x="686" y="132" width="24" height="10" rx="3" fill="#78716C"/>
<rect x="686" y="148" width="24" height="6" rx="3" fill="#D6D3D1"/>
<rect x="726" y="122" width="44" height="42" rx="8" fill="#FEF3E2" stroke="#DDC49A"/>
<rect x="736" y="132" width="24" height="10" rx="3" fill="#B45309"/>
<rect x="736" y="148" width="24" height="6" rx="3" fill="#DDC49A"/>
<rect x="626" y="176" width="144" height="52" rx="8" fill="#FBF7EF" stroke="#DDC49A" stroke-dasharray="4 3"/>
<rect x="636" y="186" width="70" height="7" rx="3" fill="#B45309"/>
<rect x="636" y="199" width="124" height="6" rx="3" fill="#A8A29E"/>
<rect x="636" y="211" width="98" height="6" rx="3" fill="#A8A29E"/>
<rect x="626" y="240" width="66" height="22" rx="7" fill="#B45309"/>
<rect x="700" y="240" width="70" height="22" rx="7" fill="#FFFFFF" stroke="#E7E5E4"/>
<rect x="626" y="278" width="144" height="120" rx="8" fill="#FCFCFA" stroke="#F0EFEA"/>
<rect x="646" y="300" width="30" height="84" rx="4" fill="#B45309"/>
<rect x="686" y="334" width="30" height="50" rx="4" fill="#0369A1"/>
<rect x="726" y="358" width="30" height="26" rx="4" fill="#6B7280"/>
<rect x="626" y="384" width="144" height="2" fill="#E7E5E4"/>
<g>
<circle cx="638" cy="418" r="8" fill="#E9F6EE"/><rect x="654" y="414" width="76" height="8" rx="3" fill="#78716C"/><rect x="742" y="414" width="24" height="8" rx="3" fill="#15803D"/>
<circle cx="638" cy="442" r="8" fill="#FDECEC"/><rect x="654" y="438" width="64" height="8" rx="3" fill="#78716C"/><rect x="742" y="438" width="24" height="8" rx="3" fill="#B91C1C"/>
<circle cx="638" cy="466" r="8" fill="#E9F6EE"/><rect x="654" y="462" width="70" height="8" rx="3" fill="#78716C"/><rect x="742" y="462" width="24" height="8" rx="3" fill="#15803D"/>
</g>
</g>
</svg>
