<svg xmlns="http://www.w3.org/2000/svg" viewBox="0 0 1000 1250">
  <defs>
    <linearGradient id="rasante" x1="0" y1="0" x2="1" y2="1">
      <stop offset="0%" stop-color="#d9a05f" stop-opacity="0.32"/>
      <stop offset="100%" stop-color="#d9a05f" stop-opacity="0"/>
    </linearGradient>
    <linearGradient id="ceu" x1="0" y1="0" x2="0" y2="1">
      <stop offset="0%" stop-color="#15181d"/>
      <stop offset="100%" stop-color="#0f1115"/>
    </linearGradient>
  </defs>
  <rect width="1000" height="1250" fill="url(#ceu)"/>
  <polygon points="0,1250 0,760 420,300 420,1250" fill="#191c22"/>
  <polygon points="420,1250 420,300 430,290 760,560 760,1250" fill="#1f232a"/>
  <polygon points="760,1250 760,560 1000,420 1000,1250" fill="#171a20"/>
  <polygon points="0,760 420,300 430,290 430,470 60,830" fill="url(#rasante)"/>
  <line x1="430" y1="290" x2="430" y2="1250" stroke="#d9a05f" stroke-width="1.5" stroke-opacity="0.8"/>
  <g fill="#d9a05f">
    <circle cx="470" cy="1170" r="3"/>
    <circle cx="500" cy="1170" r="2" opacity="0.5"/>
    <circle cx="530" cy="1170" r="2" opacity="0.5"/>
  </g>
  <rect x="60" y="60" width="880" height="1130" fill="none" stroke="#aeb6c2" stroke-opacity="0.14" stroke-width="1"/>
</svg>
