<svg xmlns="http://www.w3.org/2000/svg" viewBox="0 0 800 500" role="img" aria-label="Mockup do sistema AMPARO: agenda semanal colorida por status, KPIs e painel de confirmações">
  <rect width="800" height="500" fill="#FBFBF9"/>
  <!-- topbar -->
  <rect x="24" y="20" width="752" height="44" rx="10" fill="#FFFFFF" stroke="#E8E6DE"/>
  <rect x="38" y="31" width="22" height="22" rx="6" fill="#0F766E"/>
  <path d="M49 36v12M43 42h12" stroke="#FBFBF9" stroke-width="3" stroke-linecap="round"/>
  <rect x="70" y="36" width="64" height="7" rx="3.5" fill="#1C2A33"/>
  <rect x="70" y="47" width="44" height="4" rx="2" fill="#8A97A0"/>
  <rect x="290" y="32" width="200" height="20" rx="10" fill="#FBFBF9" stroke="#E8E6DE"/>
  <circle cx="302" cy="42" r="4" fill="none" stroke="#8A97A0" stroke-width="1.6"/>
  <rect x="586" y="31" width="88" height="22" rx="8" fill="#FFFFFF" stroke="#E8E6DE"/>
  <rect x="682" y="31" width="80" height="22" rx="8" fill="#0F766E"/>
  <!-- KPIs -->
  <g>
    <rect x="24" y="76" width="180" height="58" rx="12" fill="#FFFFFF" stroke="#E8E6DE"/>
    <rect x="24" y="84" width="3" height="42" fill="#0F766E"/>
    <rect x="38" y="88" width="56" height="5" rx="2.5" fill="#8A97A0"/>
    <rect x="38" y="100" width="78" height="12" rx="4" fill="#1C2A33"/>
    <rect x="38" y="118" width="96" height="4" rx="2" fill="#B9C2C8"/>
  </g>
  <g>
    <rect x="215" y="76" width="180" height="58" rx="12" fill="#FFFFFF" stroke="#E8E6DE"/>
    <rect x="215" y="84" width="3" height="42" fill="#B91C1C"/>
    <rect x="229" y="88" width="50" height="5" rx="2.5" fill="#8A97A0"/>
    <rect x="229" y="100" width="58" height="12" rx="4" fill="#1C2A33"/>
    <rect x="229" y="118" width="88" height="4" rx="2" fill="#B9C2C8"/>
  </g>
  <g>
    <rect x="406" y="76" width="180" height="58" rx="12" fill="#FFFFFF" stroke="#E8E6DE"/>
    <rect x="406" y="84" width="3" height="42" fill="#1D4ED8"/>
    <rect x="420" y="88" width="62" height="5" rx="2.5" fill="#8A97A0"/>
    <rect x="420" y="100" width="46" height="12" rx="4" fill="#1C2A33"/>
    <rect x="420" y="118" width="92" height="4" rx="2" fill="#B9C2C8"/>
  </g>
  <g>
    <rect x="597" y="76" width="179" height="58" rx="12" fill="#FFFFFF" stroke="#E8E6DE"/>
    <rect x="597" y="84" width="3" height="42" fill="#D97706"/>
    <rect x="611" y="88" width="66" height="5" rx="2.5" fill="#8A97A0"/>
    <rect x="611" y="100" width="84" height="12" rx="4" fill="#1C2A33"/>
    <rect x="611" y="118" width="80" height="4" rx="2" fill="#B9C2C8"/>
  </g>
  <!-- agenda semanal (assinatura) -->
  <rect x="24" y="146" width="510" height="334" rx="12" fill="#FFFFFF" stroke="#E8E6DE"/>
  <!-- cabecalho dias -->
  <g fill="#DCE1E5">
    <rect x="78" y="158" width="46" height="8" rx="4"/>
    <rect x="154" y="158" width="46" height="8" rx="4"/>
    <rect x="230" y="158" width="46" height="8" rx="4" fill="#0F766E"/>
    <rect x="306" y="158" width="46" height="8" rx="4"/>
    <rect x="382" y="158" width="46" height="8" rx="4"/>
    <rect x="458" y="158" width="46" height="8" rx="4"/>
  </g>
  <line x1="24" y1="176" x2="534" y2="176" stroke="#E8E6DE"/>
  <!-- linhas de hora -->
  <g stroke="#F0EEE7">
    <line x1="64" y1="214" x2="534" y2="214"/><line x1="64" y1="252" x2="534" y2="252"/>
    <line x1="64" y1="290" x2="534" y2="290"/><line x1="64" y1="328" x2="534" y2="328"/>
    <line x1="64" y1="366" x2="534" y2="366"/><line x1="64" y1="404" x2="534" y2="404"/>
    <line x1="64" y1="442" x2="534" y2="442"/>
  </g>
  <!-- rotulos de hora -->
  <g fill="#DCE1E5">
    <rect x="34" y="182" width="22" height="5" rx="2.5"/><rect x="34" y="220" width="22" height="5" rx="2.5"/>
    <rect x="34" y="258" width="22" height="5" rx="2.5"/><rect x="34" y="296" width="22" height="5" rx="2.5"/>
    <rect x="34" y="334" width="22" height="5" rx="2.5"/><rect x="34" y="372" width="22" height="5" rx="2.5"/>
    <rect x="34" y="410" width="22" height="5" rx="2.5"/><rect x="34" y="448" width="22" height="5" rx="2.5"/>
  </g>
  <!-- coluna de hoje destacada -->
  <rect x="226" y="177" width="72" height="295" fill="#F6FBFA"/>
  <!-- chips por status -->
  <g rx="4">
    <rect x="72" y="182" width="56" height="26" rx="5" fill="#F0FDFA" stroke="#0F766E" stroke-width="2"/>
    <rect x="72" y="252" width="56" height="26" rx="5" fill="#F0FDF4" stroke="#15803D" stroke-width="2"/>
    <rect x="72" y="330" width="56" height="26" rx="5" fill="#F1F5F9" stroke="#64748B" stroke-width="2"/>
    <rect x="148" y="216" width="56" height="26" rx="5" fill="#F0FDFA" stroke="#0F766E" stroke-width="2"/>
    <rect x="148" y="292" width="56" height="26" rx="5" fill="#FEF2F2" stroke="#B91C1C" stroke-width="2"/>
    <rect x="148" y="406" width="56" height="26" rx="5" fill="#F1F5F9" stroke="#64748B" stroke-width="2"/>
    <rect x="230" y="182" width="56" height="26" rx="5" fill="#F0FDFA" stroke="#0F766E" stroke-width="2"/>
    <rect x="230" y="216" width="56" height="26" rx="5" fill="#EFF6FF" stroke="#1D4ED8" stroke-width="2"/>
    <rect x="230" y="256" width="56" height="26" rx="5" fill="#FFFBEB" stroke="#D97706" stroke-width="2"/>
    <rect x="230" y="330" width="56" height="26" rx="5" fill="#F0FDF4" stroke="#15803D" stroke-width="2"/>
    <rect x="230" y="368" width="56" height="26" rx="5" fill="#F1F5F9" stroke="#64748B" stroke-width="2"/>
    <rect x="306" y="196" width="56" height="26" rx="5" fill="#F0FDF4" stroke="#15803D" stroke-width="2"/>
    <rect x="306" y="292" width="56" height="26" rx="5" fill="#F1F5F9" stroke="#64748B" stroke-width="2"/>
    <rect x="306" y="368" width="56" height="26" rx="5" fill="#F3F4F6" stroke="#94A3B8" stroke-width="2"/>
    <rect x="382" y="182" width="56" height="26" rx="5" fill="#F1F5F9" stroke="#64748B" stroke-width="2"/>
    <rect x="382" y="256" width="56" height="26" rx="5" fill="#F0FDF4" stroke="#15803D" stroke-width="2"/>
    <rect x="382" y="330" width="56" height="26" rx="5" fill="#F1F5F9" stroke="#64748B" stroke-width="2"/>
    <rect x="458" y="216" width="46" height="26" rx="5" fill="#F1F5F9" stroke="#64748B" stroke-width="2"/>
    <rect x="458" y="292" width="46" height="26" rx="5" fill="#F0FDF4" stroke="#15803D" stroke-width="2"/>
  </g>
  <!-- risco no cancelado -->
  <line x1="312" y1="381" x2="356" y2="381" stroke="#94A3B8" stroke-width="2"/>
  <!-- trilho direito: lista de hoje -->
  <rect x="546" y="146" width="230" height="150" rx="12" fill="#FFFFFF" stroke="#E8E6DE"/>
  <rect x="560" y="160" width="80" height="7" rx="3.5" fill="#1C2A33"/>
  <g>
    <rect x="560" y="180" width="22" height="8" rx="4" fill="#DCE1E5"/>
    <rect x="590" y="180" width="90" height="8" rx="4" fill="#B9C2C8"/>
    <rect x="700" y="178" width="62" height="12" rx="6" fill="#0F766E" opacity=".85"/>
    <rect x="560" y="202" width="22" height="8" rx="4" fill="#DCE1E5"/>
    <rect x="590" y="202" width="76" height="8" rx="4" fill="#B9C2C8"/>
    <rect x="700" y="200" width="62" height="12" rx="6" fill="#D97706" opacity=".85"/>
    <rect x="560" y="224" width="22" height="8" rx="4" fill="#DCE1E5"/>
    <rect x="590" y="224" width="96" height="8" rx="4" fill="#B9C2C8"/>
    <rect x="700" y="222" width="62" height="12" rx="6" fill="#1D4ED8" opacity=".85"/>
    <rect x="560" y="246" width="22" height="8" rx="4" fill="#DCE1E5"/>
    <rect x="590" y="246" width="84" height="8" rx="4" fill="#B9C2C8"/>
    <rect x="700" y="244" width="62" height="12" rx="6" fill="#15803D" opacity=".85"/>
    <rect x="560" y="268" width="22" height="8" rx="4" fill="#DCE1E5"/>
    <rect x="590" y="268" width="70" height="8" rx="4" fill="#B9C2C8"/>
    <rect x="700" y="266" width="62" height="12" rx="6" fill="#64748B" opacity=".85"/>
  </g>
  <!-- confirmacoes whatsapp -->
  <rect x="546" y="308" width="230" height="98" rx="12" fill="#FFFFFF" stroke="#E8E6DE"/>
  <rect x="560" y="322" width="110" height="7" rx="3.5" fill="#1C2A33"/>
  <rect x="560" y="338" width="150" height="22" rx="8" fill="#E9F8EF" stroke="#CBEBD6"/>
  <rect x="570" y="346" width="112" height="6" rx="3" fill="#7CB893"/>
  <rect x="640" y="366" width="70" height="16" rx="8" fill="#F0FDF4" stroke="#15803D"/>
  <rect x="560" y="368" width="64" height="12" rx="6" fill="#0F766E" opacity=".2"/>
  <rect x="560" y="388" width="200" height="6" rx="3" fill="#F0EEE7"/>
  <rect x="560" y="388" width="120" height="6" rx="3" fill="#15803D"/>
  <!-- relatorios: donut + barras -->
  <rect x="546" y="418" width="230" height="62" rx="12" fill="#FFFFFF" stroke="#E8E6DE"/>
  <circle cx="586" cy="449" r="20" fill="none" stroke="#F0EEE7" stroke-width="9"/>
  <circle cx="586" cy="449" r="20" fill="none" stroke="#0F766E" stroke-width="9" stroke-dasharray="75 126" transform="rotate(-90 586 449)"/>
  <circle cx="586" cy="449" r="20" fill="none" stroke="#64748B" stroke-width="9" stroke-dasharray="42 126" stroke-dashoffset="-75" transform="rotate(-90 586 449)"/>
  <g>
    <rect x="628" y="452" width="14" height="18" rx="3" fill="#A7CBC6"/>
    <rect x="648" y="444" width="14" height="26" rx="3" fill="#A7CBC6"/>
    <rect x="668" y="436" width="14" height="34" rx="3" fill="#0F766E"/>
    <rect x="688" y="448" width="14" height="22" rx="3" fill="#A7CBC6"/>
    <rect x="708" y="440" width="14" height="30" rx="3" fill="#A7CBC6"/>
    <rect x="728" y="456" width="14" height="14" rx="3" fill="#A7CBC6"/>
  </g>
</svg>
