<svg xmlns="http://www.w3.org/2000/svg" viewBox="0 0 800 500" role="img" aria-label="MARÉ — admin de pedidos e-commerce, split-pane com PIX expirando">
  <defs>
    <linearGradient id="cab" x1="0" y1="0" x2="1" y2="1">
      <stop offset="0" stop-color="#064E3B"/><stop offset="1" stop-color="#032E23"/>
    </linearGradient>
    <linearGradient id="area" x1="0" y1="0" x2="0" y2="1">
      <stop offset="0" stop-color="#059669" stop-opacity=".3"/><stop offset="1" stop-color="#059669" stop-opacity="0"/>
    </linearGradient>
  </defs>
  <rect width="800" height="500" fill="#F8FAF9"/>

  <!-- topo -->
  <rect width="800" height="56" fill="#FFFFFF"/>
  <rect y="55" width="800" height="1" fill="#E3EAE6"/>
  <rect x="24" y="14" width="28" height="28" rx="8" fill="#064E3B"/>
  <path d="M29 33c3-6 5 2 8-3s5-2 9-6" stroke="#34D399" stroke-width="2.6" fill="none" stroke-linecap="round"/>
  <rect x="62" y="21" width="64" height="14" rx="7" fill="#12241E"/>
  <rect x="250" y="16" width="240" height="24" rx="9" fill="#F8FAF9" stroke="#E3EAE6"/>
  <circle cx="264" cy="28" r="5" fill="none" stroke="#8CA099" stroke-width="2"/>
  <rect x="620" y="15" width="104" height="26" rx="9" fill="#059669"/>
  <rect x="632" y="25" width="80" height="6" rx="3" fill="#FFFFFF" opacity=".9"/>
  <circle cx="756" cy="28" r="14" fill="#064E3B"/>

  <!-- KPIs -->
  <g>
    <rect x="24" y="70" width="178" height="58" rx="12" fill="#FFFFFF" stroke="#E3EAE6"/>
    <rect x="38" y="82" width="70" height="7" rx="3.5" fill="#CBD8D2"/>
    <rect x="38" y="98" width="110" height="14" rx="6" fill="#064E3B"/>
    <rect x="214" y="70" width="178" height="58" rx="12" fill="#FFFFFF" stroke="#E3EAE6"/>
    <rect x="228" y="82" width="82" height="7" rx="3.5" fill="#CBD8D2"/>
    <rect x="228" y="98" width="86" height="14" rx="6" fill="#12241E"/>
    <rect x="404" y="70" width="178" height="58" rx="12" fill="#FFFFFF" stroke="#E3EAE6"/>
    <rect x="418" y="82" width="76" height="7" rx="3.5" fill="#CBD8D2"/>
    <rect x="418" y="98" width="44" height="14" rx="6" fill="#059669"/>
    <rect x="594" y="70" width="182" height="58" rx="12" fill="#FFFFFF" stroke="#E3EAE6"/>
    <rect x="608" y="82" width="72" height="7" rx="3.5" fill="#CBD8D2"/>
    <rect x="608" y="98" width="56" height="14" rx="6" fill="#0D9488"/>
  </g>

  <!-- lista (esquerda) -->
  <rect x="24" y="142" width="278" height="334" rx="12" fill="#FFFFFF" stroke="#E3EAE6"/>
  <rect x="38" y="156" width="52" height="18" rx="9" fill="#064E3B"/>
  <rect x="96" y="156" width="58" height="18" rx="9" fill="#F8FAF9" stroke="#E3EAE6"/>
  <rect x="160" y="156" width="64" height="18" rx="9" fill="#F8FAF9" stroke="#E3EAE6"/>
  <rect x="25" y="186" width="276" height="1" fill="#E3EAE6"/>
  <!-- item selecionado -->
  <rect x="25" y="188" width="276" height="56" fill="#ECFDF5"/>
  <rect x="25" y="188" width="4" height="56" fill="#059669"/>
  <rect x="42" y="199" width="56" height="9" rx="4.5" fill="#12241E"/>
  <rect x="216" y="197" width="72" height="13" rx="6.5" fill="#FEF3C7"/>
  <circle cx="226" cy="203.5" r="3" fill="#B45309"/>
  <rect x="42" y="218" width="104" height="8" rx="4" fill="#5B6E67"/>
  <rect x="42" y="232" width="34" height="9" rx="4.5" fill="#CCFBF1"/>
  <rect x="86" y="233" width="46" height="7" rx="3.5" fill="#B45309"/>
  <!-- demais itens -->
  <g>
    <rect x="25" y="244" width="276" height="1" fill="#E3EAE6"/>
    <rect x="42" y="257" width="48" height="9" rx="4.5" fill="#12241E"/>
    <rect x="222" y="255" width="66" height="13" rx="6.5" fill="#D1FAE5"/>
    <circle cx="232" cy="261.5" r="3" fill="#047857"/>
    <rect x="42" y="276" width="120" height="8" rx="4" fill="#8CA099"/>
    <rect x="25" y="298" width="276" height="1" fill="#E3EAE6"/>
    <rect x="42" y="311" width="54" height="9" rx="4.5" fill="#12241E"/>
    <rect x="222" y="309" width="66" height="13" rx="6.5" fill="#EDE9FE"/>
    <circle cx="232" cy="315.5" r="3" fill="#6D28D9"/>
    <rect x="42" y="330" width="96" height="8" rx="4" fill="#8CA099"/>
    <rect x="25" y="352" width="276" height="1" fill="#E3EAE6"/>
    <rect x="42" y="365" width="50" height="9" rx="4.5" fill="#12241E"/>
    <rect x="222" y="363" width="66" height="13" rx="6.5" fill="#DBEAFE"/>
    <circle cx="232" cy="369.5" r="3" fill="#1D4ED8"/>
    <rect x="42" y="384" width="112" height="8" rx="4" fill="#8CA099"/>
    <rect x="25" y="406" width="276" height="1" fill="#E3EAE6"/>
    <rect x="42" y="419" width="46" height="9" rx="4.5" fill="#12241E"/>
    <rect x="222" y="417" width="66" height="13" rx="6.5" fill="#C7EFE0"/>
    <circle cx="232" cy="423.5" r="3" fill="#032E23"/>
    <rect x="42" y="438" width="104" height="8" rx="4" fill="#8CA099"/>
  </g>

  <!-- detalhe (direita) -->
  <rect x="316" y="142" width="460" height="112" rx="12" fill="url(#cab)"/>
  <rect x="334" y="160" width="96" height="12" rx="6" fill="#FFFFFF"/>
  <rect x="440" y="159" width="70" height="14" rx="7" fill="#FEF3C7"/>
  <circle cx="451" cy="166" r="3" fill="#B45309"/>
  <rect x="334" y="184" width="130" height="9" rx="4.5" fill="#A9D6C6"/>
  <rect x="334" y="200" width="90" height="7" rx="3.5" fill="#6C9C8B"/>
  <rect x="640" y="182" width="118" height="16" rx="7" fill="#FFFFFF"/>
  <rect x="334" y="222" width="104" height="20" rx="8" fill="#059669"/>
  <rect x="448" y="222" width="86" height="20" rx="8" fill="none" stroke="#6C9C8B"/>
  <rect x="544" y="222" width="66" height="20" rx="8" fill="none" stroke="#6C9C8B"/>

  <!-- cartão PIX com countdown -->
  <rect x="316" y="266" width="460" height="86" rx="12" fill="#F0FDFA" stroke="#0D9488" stroke-width="1.5"/>
  <rect x="332" y="280" width="58" height="58" rx="8" fill="#FFFFFF" stroke="#E3EAE6"/>
  <g fill="#0B3B2E">
    <rect x="338" y="286" width="12" height="12" rx="1"/>
    <rect x="374" y="286" width="12" height="12" rx="1"/>
    <rect x="338" y="322" width="12" height="12" rx="1"/>
    <rect x="356" y="290" width="5" height="5"/><rect x="364" y="298" width="5" height="5"/>
    <rect x="352" y="306" width="5" height="5"/><rect x="362" y="314" width="5" height="5"/>
    <rect x="374" y="306" width="5" height="5"/><rect x="356" y="324" width="5" height="5"/>
    <rect x="372" y="322" width="5" height="5"/><rect x="346" y="304" width="5" height="5"/>
  </g>
  <rect x="406" y="282" width="120" height="8" rx="4" fill="#0D9488"/>
  <rect x="406" y="297" width="92" height="18" rx="7" fill="#032E23"/>
  <rect x="406" y="326" width="352" height="8" rx="4" fill="#CCFBF1"/>
  <rect x="406" y="326" width="216" height="8" rx="4" fill="#0D9488"/>

  <!-- gráficos -->
  <rect x="316" y="364" width="284" height="112" rx="12" fill="#FFFFFF" stroke="#E3EAE6"/>
  <rect x="332" y="378" width="90" height="8" rx="4" fill="#CBD8D2"/>
  <polygon points="332,458 362,446 392,450 422,432 452,438 482,420 512,426 542,408 572,414 584,404 584,462 332,462" fill="url(#area)"/>
  <polyline points="332,458 362,446 392,450 422,432 452,438 482,420 512,426 542,408 572,414 584,404" fill="none" stroke="#059669" stroke-width="3" stroke-linecap="round" stroke-linejoin="round"/>
  <circle cx="584" cy="404" r="4" fill="#059669"/>
  <rect x="612" y="364" width="164" height="112" rx="12" fill="#FFFFFF" stroke="#E3EAE6"/>
  <g transform="translate(668,420)">
    <circle r="30" fill="none" stroke="#0D9488" stroke-width="13" stroke-dasharray="88 100" transform="rotate(-90)"/>
    <circle r="30" fill="none" stroke="#064E3B" stroke-width="13" stroke-dasharray="66 122" stroke-dashoffset="-88" transform="rotate(-90)"/>
    <circle r="30" fill="none" stroke="#94A3B8" stroke-width="13" stroke-dasharray="30 158" stroke-dashoffset="-156" transform="rotate(-90)"/>
  </g>
  <rect x="714" y="394" width="48" height="7" rx="3.5" fill="#0D9488"/>
  <rect x="714" y="410" width="42" height="7" rx="3.5" fill="#064E3B"/>
  <rect x="714" y="426" width="36" height="7" rx="3.5" fill="#94A3B8"/>
</svg>
